<?xml version="1.0" encoding="utf-8"?>
<!-- Generator: Adobe Illustrator 22.0.1, SVG Export Plug-In . SVG Version: 6.00 Build 0)  -->
<svg version="1.1" id="Layer_1" xmlns="http://www.w3.org/2000/svg" xmlns:xlink="http://www.w3.org/1999/xlink" x="0px" y="0px"
	 viewBox="0 0 66.87 23.84" enable-background="new 0 0 66.87 23.84" xml:space="preserve">
<path fill-rule="evenodd" clip-rule="evenodd" fill="#2C2A29" d="M29.51,12.13C29.51,11.82,29.74,12.22,29.51,12.13L29.51,12.13z
	 M28.71,8.02c0.03,0.03,0.06,0.09,0.09,0.14c-0.09,0.03-0.17,0.11-0.2,0C28.66,8.11,28.69,8.08,28.71,8.02L28.71,8.02z M28.46,4.71
	c-0.09,0.43,0.09,0.91-0.34,1.28c-0.17-0.03-0.31-0.09-0.48-0.14c0.14-0.11,0.43-0.14,0.45-0.34c-0.14-0.2-0.31-0.4-0.54-0.37
	c0.09-0.2-0.06-0.43-0.03-0.62c0.17-0.17,0.26-0.03,0.43-0.2C27.95,4.71,28.29,4.48,28.46,4.71L28.46,4.71z M29.06,6.55
	c-0.28-0.31-0.71-0.17-0.65-0.77c0.23,0,0.26-0.28,0.45-0.26C28.83,5.84,29.03,6.21,29.06,6.55L29.06,6.55z M29.25,6.77
	c0.09-0.09,0.17-0.14,0.28-0.2c0.03,0.09,0.11,0.06,0.14,0.14c-0.11,0.09-0.09,0.23-0.2,0.34C29.4,7.03,29.31,6.89,29.25,6.77
	L29.25,6.77z M27.92,3.8c-0.06-0.26-0.09-0.57,0.2-0.65c0.17,0.17,0.11,0.31,0.14,0.45C28.15,3.74,28.03,3.74,27.92,3.8L27.92,3.8z
	 M28.4,0.85c0.03,0.09,0.17,0.2,0,0.26C28.35,1.02,28.32,0.94,28.4,0.85L28.4,0.85z M29.59,2.1c-0.11,0.06-0.23,0.06-0.28-0.03
	C29.45,1.87,29.48,2.1,29.59,2.1L29.59,2.1z M32.77,7.77C32.88,7.65,32.91,7.8,33,7.8C32.88,7.88,32.83,7.88,32.77,7.77L32.77,7.77z
	 M29.93,2.69c0.03-0.14,0.11-0.03,0.23-0.17v0.06l0.06,0.03c0.06,0.11,0.11,0.2,0.2,0.31C30.19,3.03,30.05,2.95,29.93,2.69
	L29.93,2.69z M33.05,7.82c0.11-0.11,0-0.23,0.17-0.31c0.09,0.17,0.11,0.09,0.14,0.26C33.25,7.85,33.14,7.88,33.05,7.82L33.05,7.82z
	 M30.05,1.76c0-0.03-0.03-0.06-0.06-0.09c0.06-0.03,0.09-0.06,0.11-0.09c0,0.03,0.03,0.09,0.06,0.11C30.1,1.7,30.08,1.73,30.05,1.76
	L30.05,1.76z M34.55,9.16c-0.03-0.09-0.09-0.14-0.14-0.14C34.5,8.84,34.67,9.1,34.55,9.16L34.55,9.16z M34.5,8.22
	c-0.09,0.28-0.45,0.23-0.43,0C34.21,8.28,34.38,8.14,34.5,8.22L34.5,8.22z M34.16,6.97c0.06,0.09,0.11,0.2,0.17,0.28
	c-0.23,0.17-0.17,0.37-0.28,0.54C33.56,7.77,33.65,7.09,34.16,6.97L34.16,6.97z M34.38,7.6c0.14-0.14,0.28-0.2,0.34,0
	c-0.09,0.06-0.14,0.11-0.23,0.17C34.47,7.71,34.44,7.65,34.38,7.6L34.38,7.6z M31.38,1.08c-0.06-0.14,0.17-0.23,0.28-0.34v0.09
	l0.06,0.03C31.8,0.99,31.49,1.33,31.38,1.08L31.38,1.08z M34.3,6.75c-0.03-0.06-0.09,0-0.11-0.09C34.24,6.49,34.41,6.69,34.3,6.75
	L34.3,6.75z M34.7,7.09c0.06,0.11,0.11,0.17,0.2,0.2C34.78,7.46,34.61,7.14,34.7,7.09L34.7,7.09z M34.98,7.34
	c0.06,0.11,0.14,0.03,0.17,0.2C35.06,7.71,34.89,7.4,34.98,7.34L34.98,7.34z M34.78,6.77C34.55,6.52,34.87,6.58,34.78,6.77
	L34.78,6.77z M35.97,6.86c-0.03-0.03-0.09-0.03-0.11-0.06c0.06-0.03,0.06-0.06,0.09-0.11c0.03,0.06,0.06,0.03,0.09,0.06
	C36,6.77,36,6.83,35.97,6.86L35.97,6.86z M33.36,1.05c-0.2,0.17-0.37,0.11-0.51,0.03C33.08,0.85,33.39,0.82,33.36,1.05L33.36,1.05z
	 M36.23,6.04c0.09-0.09,0.2-0.17,0.28-0.09c-0.06,0.09-0.09,0.14-0.14,0.23C36.31,6.12,36.26,6.15,36.23,6.04L36.23,6.04z
	 M34.16,1.02c-0.14-0.14,0.03-0.28-0.11-0.43c-0.11-0.14-0.31,0.09-0.43-0.03C33.99-0.03,34.61,0.6,34.16,1.02L34.16,1.02z
	 M39.97,10.74c-0.06-0.06-0.11,0-0.17-0.06c0.06-0.06,0.09-0.11,0.11-0.14c0,0,0.03,0.03,0.06,0C40.03,10.63,40,10.69,39.97,10.74
	L39.97,10.74z M37.9,4.9c-0.17,0.2-0.28,0.11-0.4,0.03C37.67,4.79,37.79,4.88,37.9,4.9L37.9,4.9z M42.04,11.79
	c0.03-0.11,0.14-0.2,0.2-0.09C42.21,11.79,42.12,11.88,42.04,11.79L42.04,11.79z M39.09,6.29C39,6.26,38.92,6.15,39.03,6.07
	C39.12,6.07,39.2,6.18,39.09,6.29L39.09,6.29z M39.91,4.82c-0.06,0.06-0.14,0.11-0.2,0.14c-0.03-0.03-0.06-0.09-0.09-0.14
	C39.74,4.73,39.86,4.71,39.91,4.82L39.91,4.82z M41.84,7.65c-0.2,0-0.43,0.23-0.54,0.03C41.53,7.48,41.95,7.34,41.84,7.65
	L41.84,7.65z M39.15,2.95c0.23-0.23,0.37,0,0.31,0.2C39.29,3.29,39.12,3.12,39.15,2.95L39.15,2.95z M42.15,7.77
	c-0.06-0.09-0.09-0.17-0.14-0.23C42.26,7.29,42.43,7.57,42.15,7.77L42.15,7.77z M41.87,5.24c-0.26,0.2-0.4-0.2-0.14-0.37
	C41.9,4.96,41.87,5.07,41.87,5.24L41.87,5.24z M41.78,5.41c0.06-0.03,0.11-0.03,0.17-0.06c0.06,0.09,0,0.14,0.06,0.23
	C41.87,5.73,41.75,5.56,41.78,5.41L41.78,5.41z M42.09,5.58c0.14,0.14,0.34,0,0.48,0.17c-0.17,0.17-0.17,0.11-0.37,0.28
	C42.21,5.78,41.98,5.78,42.09,5.58L42.09,5.58z M42.32,2.24c0.11-0.2,0.28-0.17,0.28,0.03C42.49,2.41,42.38,2.38,42.32,2.24
	L42.32,2.24z M38.27,5.78l-0.06,0.03l-0.03,0.06c-0.09,0-0.17-0.06-0.23-0.17C38.07,5.64,38.18,5.64,38.27,5.78L38.27,5.78z
	 M37.67,10.71c0.03-0.14,0.28-0.23,0.2-0.34c-0.09-0.17-0.28,0.11-0.37-0.06c0-0.09,0.28-0.14,0.09-0.31l0.06-0.06l-0.03-0.03
	c0.2,0.09,0.51,0.4,0.54,0.68C37.96,10.8,37.81,10.77,37.67,10.71L37.67,10.71z M28.8,8.73v0.06l0.06,0.03
	c-0.2,0.11-0.34,0.11-0.51,0.17c-0.2-0.43-0.65,0.17-0.88-0.11c0.17-0.14,0.23-0.31,0.48-0.48l0.06,0.03l0.06-0.03
	c0.03,0.06-0.03,0.09,0.03,0.17c0.06,0.09,0.17,0,0.28-0.09C28.46,8.76,28.66,8.65,28.8,8.73L28.8,8.73z M28.09,8.28l-0.03-0.03
	c-0.09-0.11,0.09-0.2,0.23-0.28c0.03,0.06,0.06,0.11,0.09,0.17c-0.03,0.14-0.14,0.06-0.28,0.2V8.28z M47.54,11.62
	c-0.09,0.17-0.28,0.26-0.37,0.03c0.09-0.06,0.17-0.14,0.26-0.2C47.48,11.51,47.51,11.57,47.54,11.62L47.54,11.62z M46.29,10.03
	c0-0.06,0.03-0.09,0.09-0.11c0.06,0.03,0.11,0.06,0.17,0.09c0,0.03,0,0.09-0.03,0.11h-0.06l-0.03,0.06
	C46.4,10.09,46.32,10.12,46.29,10.03L46.29,10.03z M47.2,10.71c-0.28,0.11-0.51,0.03-0.65-0.34l0.06-0.03l0.03-0.06
	C46.86,10.29,47.17,10.54,47.2,10.71L47.2,10.71z M47.79,11.17c0.14,0.14,0.14,0.17,0.23,0.37c-0.17,0.11-0.37-0.17-0.37-0.26
	C47.71,11.23,47.76,11.2,47.79,11.17L47.79,11.17z M46.57,4.37c0.03-0.11,0.17-0.2,0.23-0.03C46.71,4.42,46.63,4.45,46.57,4.37
	L46.57,4.37z M46.63,3.94c-0.09-0.2-0.03-0.4,0.17-0.45c0.03,0.09,0.09,0.17,0.11,0.23C46.83,3.8,46.74,3.86,46.63,3.94L46.63,3.94z
	 M46.89,2.86c-0.06,0.03-0.14,0.09-0.2,0.11c-0.03-0.06-0.06-0.11-0.11-0.17C46.71,2.66,46.83,2.66,46.89,2.86L46.89,2.86z
	 M49.24,6.92c-0.03-0.06-0.06-0.09-0.06-0.14c0.03-0.03,0.09-0.06,0.11-0.11c0.03,0.06,0.06,0.11,0.09,0.14
	C49.35,6.83,49.29,6.89,49.24,6.92L49.24,6.92z M48.95,6.29c0.17-0.14,0.26-0.06,0.37-0.03C49.18,6.35,49.04,6.43,48.95,6.29
	L48.95,6.29z M48.53,5.36c-0.34-0.31-0.09-0.77,0.23-0.54C48.7,4.99,48.78,5.22,48.53,5.36L48.53,5.36z M48.87,5.81
	c0.11-0.09,0.2-0.11,0.26-0.03C49.04,5.84,48.93,6.01,48.87,5.81L48.87,5.81z M47.91,2.78c0.11-0.14,0.2-0.17,0.31-0.03
	C48.19,2.89,47.96,3,47.91,2.78L47.91,2.78z M54.34,11.08c0.09-0.06,0.14-0.11,0.23-0.17c0.14,0.11,0.4,0.48,0.26,0.77
	c-0.09-0.11-0.28,0.28-0.37,0.14C54.54,11.59,54.26,11.31,54.34,11.08L54.34,11.08z M54.26,10.69c0.03-0.03,0.09-0.06,0.14-0.11
	C54.54,10.66,54.26,10.89,54.26,10.69L54.26,10.69z M54.68,10.03c0.14-0.09,0.28-0.26,0.37-0.14c-0.03,0.03-0.03,0.09,0,0.11
	C54.91,10.12,54.77,10.2,54.68,10.03L54.68,10.03z M53.32,3.6c0.14-0.11,0.28,0,0.26,0.14C53.43,3.86,53.29,3.71,53.32,3.6
	L53.32,3.6z M53.89,4.22c0.06-0.06,0.14-0.11,0.23-0.17c0.03,0.09,0.09,0.14,0.11,0.23C54.09,4.42,53.94,4.39,53.89,4.22L53.89,4.22
	z M53.89,1.76c0.06,0.09,0.11,0.17,0.17,0.26c-0.11,0.09-0.26,0.17-0.31,0.06V1.98l-0.06-0.03C53.8,1.9,53.86,1.81,53.89,1.76
	L53.89,1.76z M53.6,3.4c0.11-0.09,0.26-0.17,0.37-0.14c-0.2,0.09-0.06,0.23-0.2,0.34C53.72,3.43,53.55,3.6,53.6,3.4L53.6,3.4z
	 M55.59,6.24c0.06-0.03,0.09-0.06,0.14-0.09c0.03,0.03,0.06,0.09,0.09,0.14C55.7,6.38,55.64,6.35,55.59,6.24L55.59,6.24z
	 M54.31,3.51c0.11,0.06,0.23,0.11,0.31,0.28C54.34,4.08,54.2,3.69,54.31,3.51L54.31,3.51z M46.77,8.82L46.74,8.9l0.03,0.06
	c-0.31-0.06-0.62-0.06-0.88-0.37h0.03l0.03-0.06c0.14-0.09,0.26,0.06,0.37,0.11c0.09-0.06,0.14-0.11,0.17-0.2
	C46.69,8.42,46.6,8.65,46.77,8.82L46.77,8.82z M3.4,12.44h3.26v-9.5h2.61l2.49-2.47V0H0v2.95h3.4V12.44z M27.24,12.44h3.26v-9.5
	h2.35l2.24-2.04c0-0.11,0.06-0.23,0.14-0.31c0,0.06,0,0.11,0.03,0.17l0.45-0.4V0h-4.31c0,0.03,0,0.06,0,0.09
	c0.45-0.26,0.6,0.28,0.88,0.34C32.57,0.06,32.8,0.51,33,0.09c0.11,0,0.17,0.2,0.26,0.31c-0.11,0.4-0.45,0.23-0.74,0.43
	c-0.11-0.26-0.37-0.4-0.71-0.17l-0.09-0.03l-0.09,0.09c0-0.03-0.03-0.03-0.03-0.06c-0.11-0.09-0.11,0.2-0.26,0.14
	c-0.03-0.06-0.06-0.11-0.11-0.2c0.17-0.2,0.51,0.11,0.45-0.26c-0.48,0.26-0.74-0.4-1.22-0.06c-0.03-0.03-0.06-0.09-0.09-0.14
	c0-0.06,0.06-0.09,0.11-0.14h-0.71c-0.06,0.06-0.11,0.11-0.14,0.17c-0.06,0-0.11-0.09-0.14-0.17h-1.05
	c-0.11,0.06-0.26,0.09-0.34,0.03c0,0,0.03,0,0.03-0.03h-4.31v2.95h3.4V6.8c0.17,0.06,0.37,0.06,0.54-0.03
	c0.11,0.09,0.17,0.14,0.2,0.31c0.09,0,0.17-0.09,0.28-0.17c0.11,0.37,0.43,0.03,0.54,0.26c0.2,0.28,0,0.6-0.31,0.94
	c-0.11-0.09-0.26-0.45-0.31-0.65c-0.28,0-0.48-0.34-0.79-0.11c-0.06-0.09-0.09-0.11-0.14-0.17V12.44z M10.83,12.44h0.51l7.91-7.09
	v7.09h3.23V0H19.7l-5.61,5.13V0h-0.31l-2.95,2.95V12.44z M32.23,8.19v4.03h0.57l6.04-5.44c-0.37,0.2-0.6-0.11-0.31-0.45
	c0.26-0.11,0.37,0.17,0.37,0.4l1.59-1.42c-0.06-0.03-0.11-0.03-0.17-0.11c0.09-0.06,0.2-0.03,0.28,0l0.68-0.6V4.9
	c0.03,0,0.03,0.03,0.06,0.09c-0.03,0.03-0.03,0.06-0.06,0.06v2.78h-2.55l-3.29,2.98h2.89c0.03-0.03,0.06-0.03,0.11-0.06l0.03,0.06
	h2.81v1.64h3.23V4.54c-0.17-0.11-0.34-0.23-0.51-0.34c-0.37-0.62-0.88-1.05-0.82-1.62c-0.28-0.09-0.51-0.4-0.6-0.79
	c-0.31-0.23-0.74-0.09-1.02-0.54c0.03-0.11,0.09-0.23,0.26-0.31c0.17,0.06,0.17,0.09,0.26,0.28c0.23-0.09,0.45-0.2,0.74-0.45
	c0.17,0.28,0.09,0.48,0.37,0.85c0.2-0.09,0.43-0.11,0.54,0.17c-0.14,0.2-0.34-0.09-0.37,0.14c0.14,0.26,0.34,0.09,0.4,0.43
	c0.23,0.03,0.43-0.31,0.65-0.37c0.2,0.34-0.2,0.6-0.31,0.88c0.17,0.23,0.31,0.43,0.43,0.65V0.65c-0.06-0.03-0.11-0.06-0.17-0.11
	c0.09-0.09,0.11-0.23,0.17-0.34V0h-3.23l-3.34,3.03c0.06,0.06,0.11,0.14,0.2,0.23c-0.06,0.11-0.26,0.23-0.26,0.37
	c0.06,0.2,0.2,0.03,0.26,0.2c-0.48,0.31-0.6,0-0.79-0.26l-3.2,2.92c0,0,0,0.03,0,0.06C34.07,6.6,34.02,6.6,33.99,6.6L32.23,8.19z
	 M48.98,3.71v-3.2l0,0c-0.17-0.17-0.06-0.28-0.14-0.43C48.9,0.06,48.93,0.03,48.98,0l0,0h-3.26v1.7c0.06-0.06,0.14-0.11,0.26-0.06
	c-0.06,0.06-0.09,0.11-0.09,0.2c0.06,0.06,0.09,0.03,0.09,0.14c-0.14,0.06-0.2,0.06-0.26,0v0.26l0.03,0.03h-0.03v0.4
	c0.11-0.17,0.31,0.09,0.14,0.17c-0.06,0.03-0.09-0.06-0.14-0.11v2.15c0.14-0.06,0.26-0.09,0.4-0.23c0.43,0.34,0.99-0.03,1.53-0.48
	c0.14,0.17,0.34,0.17,0.48,0.48c-0.03,0.03-0.11,0.06-0.09,0.11c-0.43-0.09-0.71,0.14-1.19,0.31c-0.06,0.17-0.11,0.31-0.2,0.48
	c-0.23-0.03,0-0.23-0.14-0.37c-0.17,0.11-0.26,0.23-0.34,0.34c-0.17-0.03-0.2-0.45-0.43-0.23h-0.03v2.98l0.03-0.06
	c0.09,0.09,0.28,0.09,0.14,0.23L45.84,8.5l0.03,0.03c-0.03,0.03-0.09,0.03-0.14,0v3.91h2.07h0.03l0,0h1.08
	c-0.2-0.31-0.74-0.17-0.45-0.65c0.14,0.06,0.4,0.17,0.54,0.31V7.82h1.28c0-0.14,0.09-0.31,0-0.43C50,7.31,49.78,7.09,49.58,6.8
	c0.34-0.28,0.62-0.77,0.28-0.99c0.37-0.28,0.11-0.62,0.17-0.91h-1.05V4.03h-0.03c-0.14,0.11,0,0.26-0.17,0.37
	c-0.09,0.06-0.11,0-0.2,0.11c-0.2-0.31-0.71-0.28-0.45-0.77C48.33,3.69,48.44,4,48.61,4C48.73,3.86,48.84,3.77,48.98,3.71
	L48.98,3.71z M50.46,7.82h1.62c0.06-0.09,0.23-0.09,0.37-0.26c0.03,0.09,0.11,0.06,0.14,0.14c-0.03,0.06-0.03,0.09-0.06,0.11h0.57
	v4.62h3.26v-11c-0.11,0.03-0.2,0.06-0.28,0.03c0-0.23-0.26-0.28-0.23-0.48c0.2-0.09,0.34-0.09,0.51-0.09V0h-3.26v2.1
	c0.09-0.03,0.14-0.03,0.17,0.06h0.03h0.06c-0.09,0.14-0.14,0.23-0.26,0.28V4.9h-0.62l0,0c-0.14,0.14-0.23,0.09-0.23,0h-1.79
	c0.06,0,0.09,0.06,0.14,0.09c0.03,0.4-0.2,0.77,0.09,1.19c-0.2,0.2-0.17,0.45-0.26,0.68l-0.06,0.03c0,0-0.03,0.06-0.06,0
	c-0.03-0.03-0.06-0.06-0.06-0.09c-0.06,0.03-0.09,0.09-0.14,0.11c0.03,0.03,0.06,0.09,0.23,0.03V7l0.03,0.03
	C50.46,7.31,50.54,7.57,50.46,7.82L50.46,7.82z"/>
<path fill="#161717" d="M11.14,23.7H8.96v-7.09h2.18v2.64l1.98-2.64h2.55l-2.49,3.29l3,3.8h-2.66l-2.38-3.06V23.7z M18.26,21.37
	c0.31,0.31,0.68,0.48,1.13,0.48s0.82-0.17,1.13-0.48c0.28-0.34,0.43-0.74,0.43-1.22c0-0.51-0.14-0.91-0.43-1.22
	c-0.31-0.34-0.68-0.48-1.13-0.48s-0.85,0.14-1.13,0.48c-0.28,0.31-0.45,0.71-0.45,1.22C17.8,20.64,17.97,21.03,18.26,21.37
	L18.26,21.37z M16.67,22.76c-0.74-0.74-1.08-1.59-1.08-2.61s0.34-1.9,1.08-2.61c0.71-0.74,1.62-1.08,2.72-1.08
	c1.08,0,1.98,0.34,2.72,1.08c0.71,0.71,1.08,1.59,1.08,2.61s-0.37,1.9-1.08,2.61c-0.74,0.71-1.64,1.08-2.72,1.08
	C18.28,23.84,17.38,23.47,16.67,22.76L16.67,22.76z M26.25,23.7h-2.18v-7.09h2.18v2.38h2.15v-2.38h2.18v7.09H28.4v-2.81h-2.15V23.7z
	 M31.35,18.48v-1.87h6.24v1.87h-2.04v5.22h-2.18v-5.22H31.35z M38.32,16.61h3.26c0.82,0,1.47,0.2,1.96,0.65
	c0.48,0.43,0.74,0.96,0.74,1.64c0,0.68-0.26,1.25-0.74,1.67c-0.48,0.43-1.13,0.65-1.96,0.65h-1.08v2.47h-2.18V16.61z M40.51,19.64
	h0.79c0.23,0,0.4-0.06,0.54-0.17c0.14-0.14,0.23-0.28,0.23-0.48c0-0.17-0.09-0.34-0.23-0.45c-0.14-0.11-0.31-0.17-0.54-0.17h-0.79
	V19.64z M47.4,21.37c0.31,0.31,0.68,0.48,1.13,0.48c0.45,0,0.82-0.17,1.13-0.48c0.28-0.34,0.43-0.74,0.43-1.22
	c0-0.51-0.14-0.91-0.43-1.22c-0.31-0.34-0.68-0.48-1.13-0.48c-0.45,0-0.82,0.14-1.13,0.48c-0.28,0.31-0.43,0.71-0.43,1.22
	C46.97,20.64,47.11,21.03,47.4,21.37L47.4,21.37z M45.81,22.76c-0.71-0.74-1.08-1.59-1.08-2.61s0.37-1.9,1.08-2.61
	c0.71-0.74,1.62-1.08,2.72-1.08c1.08,0,1.98,0.34,2.72,1.08c0.71,0.71,1.08,1.59,1.08,2.61s-0.37,1.9-1.08,2.61
	c-0.71,0.71-1.62,1.08-2.72,1.08C47.42,23.84,46.52,23.47,45.81,22.76L45.81,22.76z M52.55,23.58v-1.93
	c0.2,0.09,0.37,0.14,0.48,0.14c0.26,0,0.45-0.06,0.57-0.14c0.28-0.26,0.45-1.16,0.45-2.69l0.03-2.35h5.58v7.09h-2.15v-5.22h-1.45
	l-0.03,0.85c0,1.7-0.23,2.89-0.71,3.57c-0.4,0.6-0.99,0.88-1.79,0.88C53.06,23.78,52.75,23.73,52.55,23.58L52.55,23.58z M63.92,23.7
	h-3.17v-7.09h2.18v2.04h0.99c0.88,0,1.59,0.23,2.13,0.71s0.82,1.08,0.82,1.81c0,0.74-0.28,1.36-0.82,1.81
	C65.54,23.47,64.8,23.7,63.92,23.7L63.92,23.7z M62.93,20.35v1.53h0.85c0.28,0,0.48-0.09,0.65-0.2c0.17-0.14,0.26-0.34,0.26-0.57
	c0-0.23-0.09-0.4-0.26-0.54c-0.17-0.17-0.37-0.23-0.65-0.23H62.93z"/>
</svg>
