<?xml version="1.0" encoding="utf-8"?>
<!-- Generator: Adobe Illustrator 22.0.1, SVG Export Plug-In . SVG Version: 6.00 Build 0)  -->
<svg version="1.1" id="Layer_1" xmlns="http://www.w3.org/2000/svg" xmlns:xlink="http://www.w3.org/1999/xlink" x="0px" y="0px"
	 viewBox="0 0 71.46 71.6" enable-background="new 0 0 71.46 71.6" xml:space="preserve">
<g>
	<path fill-rule="evenodd" clip-rule="evenodd" fill="#2C2A29" d="M21.15,3.15c-1.3,0.45-3.26,1.64-4.45,2.41l-1.5,1.13
		c0.09,1.76,0.74,4.34,0.71,5.7c0,1.08-1.16,1.28-2.86,3.49l-6.29-1.05c-0.79,1.08-2.41,3.83-3,5.1c-0.6,1.3,0.91,2.49,2.55,4.45
		c0.85,0.99,0.94,1.11,0.48,2.61c-0.88,2.98,0.17,3.86-6.6,5.41c-0.03,0.6-0.09,1.67-0.11,2.81H0c0,0.2,0,0.4,0.03,0.6
		C0,36,0,36.23,0,36.43h0.03c0.06,1.11,0.11,2.18,0.14,2.78c6.75,1.59,5.7,2.44,6.58,5.41c0.45,1.5,0.37,1.62-0.48,2.61
		c-1.64,1.96-3.15,3.15-2.55,4.45c0.62,1.28,2.21,4.03,3,5.1l6.32-1.05c1.7,2.21,2.86,2.44,2.86,3.49c0.03,1.36-0.62,3.94-0.71,5.7
		l1.5,1.13c1.19,0.79,3.15,1.96,4.45,2.41c0.99-0.45,3.06-2.32,4-3.12c0.96-0.88,1.16-0.71,2.52-0.34c0.91,0.28,2.15,0.43,2.61,0.99
		c0.62,0.74,1.53,4.37,2.07,5.05c0.37,0.48,1.84,0.57,3.37,0.57h0.03c1.5,0,3-0.09,3.37-0.57c0.54-0.68,1.45-4.31,2.07-5.05
		c0.45-0.57,1.7-0.71,2.61-0.99c1.36-0.37,1.56-0.54,2.52,0.34c0.94,0.79,3,2.66,4,3.12c1.3-0.45,3.26-1.62,4.45-2.41l1.5-1.13
		c-0.09-1.76-0.74-4.34-0.71-5.7c0-1.05,1.16-1.28,2.86-3.49l6.32,1.05c0.79-1.08,2.38-3.83,3-5.1c0.6-1.3-0.94-2.49-2.55-4.45
		c-0.85-0.99-0.94-1.11-0.48-2.61c0.88-2.98-0.17-3.83,6.58-5.41c0.03-0.6,0.09-1.67,0.14-2.78h0.03c0-0.2,0-0.43-0.03-0.62
		c0.03-0.2,0.03-0.4,0.03-0.6H71.4c-0.03-1.13-0.11-2.21-0.14-2.81c-6.75-1.56-5.7-2.44-6.58-5.41c-0.45-1.5-0.37-1.62,0.48-2.61
		c1.64-1.96,3.15-3.15,2.55-4.45c-0.6-1.28-2.21-4.03-3-5.1l-6.32,1.05c-1.7-2.21-2.86-2.41-2.86-3.49
		c-0.03-1.36,0.62-3.94,0.74-5.7l-1.5-1.13c-1.19-0.77-3.17-1.96-4.45-2.41l0,0c-0.99,0.48-3.06,2.32-4,3.15
		C45.35,7.14,45.16,7,43.8,6.6c-0.91-0.26-2.18-0.4-2.61-0.96c-0.62-0.74-1.53-4.42-2.07-5.1C38.75,0.09,37.25,0,35.74,0h-0.03
		c-1.5,0-3,0.09-3.37,0.54c-0.54,0.68-1.45,4.37-2.07,5.1c-0.45,0.57-1.7,0.71-2.61,0.96c-1.36,0.4-1.56,0.54-2.52-0.31
		C24.21,5.47,22.14,3.63,21.15,3.15L21.15,3.15z M35.72,61.97C21.86,61.82,10.06,50.43,9.81,36.2c0-0.14,0-0.26,0-0.4
		c0-0.11,0-0.28,0-0.43c0.26-14.23,12.05-25.6,25.91-25.74C49.61,9.78,61.4,21.15,61.65,35.38c0,0.14,0,0.31,0,0.43
		c0,0.14,0,0.26,0,0.4C61.4,50.43,49.61,61.82,35.72,61.97L35.72,61.97z"/>
</g>
</svg>
