<?xml version="1.0" encoding="utf-8"?>
<!-- Generator: Adobe Illustrator 22.0.1, SVG Export Plug-In . SVG Version: 6.00 Build 0)  -->
<svg version="1.2" baseProfile="tiny" id="Layer_1" xmlns="http://www.w3.org/2000/svg" xmlns:xlink="http://www.w3.org/1999/xlink"
	 x="0px" y="0px" viewBox="0 0 45.4 34.5" xml:space="preserve">
<g>
	<path fill-rule="evenodd" fill="#2B2A29" d="M10.8,17.9l-0.5-1.3l1.2,0c0,0,0.3,0.8,0.4,0.8c0.3,0.3,0.5,0.6,1.1,0.5l-0.5-1.3
		c1.1,0,1.4,0.1,1.5,0.2c0.2,0.2,0.3,1.1,1.2,1.2l-0.5-1.3c0.5,0,1-0.1,1.3,0.1c0,0,0.1,0.1,0.1,0.1c0.4,0.4,0.4,1.2,1.3,1.1
		l-0.5-1.3c0.6,0,1-0.1,1.3,0.2c0,0,0.3,0.8,0.4,0.8c0.3,0.3,0.3,0.4,0.9,0.4c-0.1-0.4-0.4-0.9-0.6-1.3c-0.5-1-1-2.7-1.3-3.4
		c-0.3-0.6-1.1-0.5-1-3.8c0-1.6,0.4-2,0.7-3.3c-0.7,0-8.7,0-9,0.2C7.9,6.8,8,7.3,7.9,7.8C7.8,8.2,7.7,8.5,7.6,9
		c-0.4,2.4,0.3,5.4,1.5,7.4C9.5,17.1,9.8,18,10.8,17.9L10.8,17.9z M44.8,19.1C40.7,29.4,29.5,36.5,17.3,34C9,32.2,2.9,26.3,0,19.1
		c2.4,1.1,5.1,1.3,7.9,0.6c2.2-0.5,2.4,1.8,4.6,1.3c1.4,0.3,1.1-1,3.4,0c0.9,0.5,1-0.3,1.7-0.4c0.4-0.1,1.1,0.5,1.8-0.1
		c0.7-0.6,0.9-0.1,1.5-0.1c0.9-0.6,0-1.4,2.1-2.3c1,0.5,3.4,0.3,4.4-0.1c0.2,2.5,6.5,1.6,8.3,0.4c1.8-1.3,5.7-0.9,9.6-0.6L44.8,19.1
		z M23.4,17.3c-0.2-0.1-0.3-0.2-0.3-0.5l1.7,0l0.1,0.4C24.3,17.2,23.8,17.3,23.4,17.3L23.4,17.3z M28.4,17.3l0.1-0.1
		c0.2,0,0.3-0.1,0.5-0.1c-0.7,0-0.6-0.2-0.6-0.2c0.1-0.5,0-0.4,0.4-0.5l2.1,0.1c-0.2,0.2-0.3,0.4-0.5,0.6c-0.3,0-0.7,0-1,0
		c0.3,0,0.6,0,0.9,0l0.1,0.2c0.1,0.2,0,0,0.1,0.3c0.5,0,0.9,0.2,1.2,0.4c0.3-0.1,0.3-0.4,0.6-0.3c0.1,0-0.1,0,0.3,0.1
		c0.1-0.2,0,0,0.1-0.2l0.1-0.2c0.5,0.2,0.3,0.3,0.8,0.2c0.9-0.2-0.6,0,0.6-0.1l1-0.2c0.4-0.2,0.3-0.4,0.3-1.4
		c0.2,0.4,0.2,0.9,0.1,1.4c-1.5,0.8-6.5,1.5-7.1,0C28.4,17.4,28.4,17.4,28.4,17.3L28.4,17.3z M32.2,17.2c0.6,0.2,1.7-0.4,2.5-0.1
		v-0.8c-0.8,0.2,0.9,0.2-2,0.5C32.2,16.9,32.2,16.9,32.2,17.2L32.2,17.2z M23.1,16.4c0.4,0.3,1.1,0.3,1.6,0.2L25,16
		c-0.4,0-0.7,0-0.9-0.1c1.5,0,0.8,0,2.6-0.7C25.5,15.2,23.4,15.3,23.1,16.4L23.1,16.4z M28.6,16.4c0.5,0,1,0,1.6,0
		c1,0,0.7,0,1.4-0.3c1-0.4,1.9-0.3,3-0.3l-0.3-0.2C33.3,15.4,28.9,15.4,28.6,16.4L28.6,16.4z M26.1,16.5l0,0.5
		c3,0.1,1.9,0.1,2.2-0.7c0.2-0.6,1.2-0.7,1.5-0.8l-2.7-0.1c-0.1,0.3,0.2,0.2-0.2,0.7C26.5,16.6,26.6,16.2,26.1,16.5L26.1,16.5z
		 M16.4,4.7c-3-0.3-2.4,0.6-2.4,1.3c-0.4-0.1-0.6-0.6-0.7,0.3l3.8-0.1c0.3-0.1,0.1,0.1,0.2-0.1l0.5,0.1c0.2-0.2,0.4,0,0.8,0.1
		c0.1-0.5,1.4-1.9,1.8-2.6c0.4-0.5,1-1.4,1.3-1.7c-0.3,0.5-0.6,1-1,1.4c-0.4,0.6-0.6,0.9-1,1.5c-0.9,1.1-1.7,1.9-0.4,3.1
		c0.5-0.2,3.3-3.2,3.5-3.5c-0.3-0.5-0.8-0.8-0.7-1.5C22.2,3,22.2,3,22.5,3c-0.2,0.1-0.2,0.1-0.3,0.2C22.2,4,23,4.6,23.5,5
		c0.7,0.8,2.4,2.4,2.8,3.4c0.2,0.4,0.5,2.2,0.5,2.6c0-0.2-0.3-1.6-0.4-2c-0.5-1.7-2-2.5-3.4-4.2l-0.5,0.5c3,3.6,2.4,1.8,3.4,6.4
		c0.5,2-0.4,1.5,0,2.9l1.5,0.1c0.4,0.6-0.5,0.5,2.1,0.5l2.6,0c0.7-0.1,0.2,0.1,0.5-0.4l1.8,0c0-0.5-0.1-0.9-0.1-1.4
		c0-0.7,0.1-0.8-0.6-0.8c0-0.5,0-0.6-0.5-0.8c0-0.1,0.1-0.3,0-0.5c-0.3,0.2-0.2,0.2-0.3,0.5l-1.4-0.1c-0.1-1.1-0.1-0.5-0.4-1.3
		c-0.7,0.2,0.6-0.3-0.2,0.2c-0.3,0.2-0.5,0.1-1,0c-0.9-0.1-0.7,0.1-1.1-0.6c-0.6-0.8-0.8-0.9-1.2-2.1c-0.3-1-0.5-1.5-0.7-2.6
		c-0.1-0.5-1-1.7-1.3-2.1c-0.4-0.6-0.4-0.3-0.8-0.8c-1.4-2-0.7-2.4-2.6-2.4c-1.1,0-0.9-0.1-2.1,1.2c-1.6,1.9-0.9,0.7-1.8,1.6
		c-0.4,0.3-0.6,0.5-1,0.9C17,4.1,16.6,4.3,16.4,4.7L16.4,4.7z M18,5c0.8,0.4,1.8,0,1.3-0.8C18.9,3.3,18.1,4.6,18,5L18,5z M17.5,12.9
		c0.2-0.8,0.7-2.1,0.8-2.8c-0.2,1.6-0.9,2.5-0.5,3.6c0.4,0.9,0.9,2.4,1.3,3.2c0-1.9-0.1-2.9,0.3-4.8c0.2-0.8,0.4-1.5,0.4-2.4
		c0-1.4-0.4-1.2-0.9-1.8c-0.3-0.4-0.5-1.8-1.1-1.5c-0.4,0.2-0.7,1.4-0.8,1.9C16.8,9.6,16.6,12.3,17.5,12.9L17.5,12.9z M25.9,5
		c-0.2-0.3-1-1.4-1.1-1.7c-0.2-0.6-0.5-1.3-1-1.8c-0.1,1.9-0.2,1.5,0.6,2.2C24.8,4.1,25.5,4.7,25.9,5L25.9,5z M27.6,13.9l1.2,0
		c0.1-1.3,0-1.8,0.4-2.9l-1.2,0C27.8,11.5,27.4,13.3,27.6,13.9L27.6,13.9z M29.2,13.9c1.1,0.1,1.1-0.2,1.6-0.8
		c0.7-0.8,0.5-0.6,0.4-2L29.7,11C29.2,11.6,29.1,13,29.2,13.9L29.2,13.9z"/>
</g>
</svg>
