<?xml version="1.0" encoding="utf-8"?>
<!-- Generator: Adobe Illustrator 22.0.1, SVG Export Plug-In . SVG Version: 6.00 Build 0)  -->
<svg version="1.1" id="Layer_1" xmlns="http://www.w3.org/2000/svg" xmlns:xlink="http://www.w3.org/1999/xlink" x="0px" y="0px"
	 viewBox="0 0 63.42 63.61" enable-background="new 0 0 63.42 63.61" xml:space="preserve">
<g>
	<g>
		<path fill-rule="evenodd" clip-rule="evenodd" fill="#FFBA00" d="M55.98,62.61c-0.19,0-0.38-0.01-0.57-0.02
			c-1.8-0.18-2.87-1.36-3.65-2.23c-0.17-0.18-0.33-0.36-0.49-0.53c-3.13-3.17-3.13-3.17-3.41-3.44c-0.32-0.3-0.9-0.86-5.23-5.17
			l-0.7-0.7l8.35-8.49l0.71,0.72c2.9,2.92,4.19,4.21,4.29,4.31l-0.04,0.04c0.54,0.44,1.64,1.56,4.42,4.35
			c0.18,0.19,0.37,0.36,0.57,0.54c0.88,0.81,1.98,1.82,2.16,3.55c0.18,1.87-0.39,3.65-1.6,4.99C59.56,61.87,57.86,62.61,55.98,62.61
			z M26.42,51.23c-1.39,0-2.82-0.12-4.37-0.36c-9.4-1.5-16.79-7.81-19.76-16.88C-0.69,24.86,1.57,15.02,8.2,8.3
			C12.83,3.59,19.1,1,25.87,1c4.07,0,8.13,0.96,11.73,2.77c1.26,0.65,2.48,1.39,3.62,2.21c1.98,1.54,3.57,3.1,4.89,4.79
			c2.46,3.19,4.06,6.9,4.76,11.05c0.86,5.19,0.08,10.61-2.18,15.26c-0.36,0.73-0.77,1.36-1.16,1.98c-0.22,0.35-0.44,0.69-0.62,1.02
			l2.39,2.53l-0.45,0.66c-0.63,0.93-4.57,4.87-5.43,5.49l-0.66,0.48l-2.63-2.4C35.36,49.63,31.52,51.23,26.42,51.23z M25.84,8.06
			c-9.23,0-16.67,6.85-17.69,16.28c-0.51,4.65,0.82,9.21,3.74,12.83c3.08,3.82,7.61,6.31,12.44,6.82c0.65,0.07,1.31,0.1,1.95,0.1
			c9.33,0,16.77-6.84,17.7-16.27c0.29-2.95-0.09-5.78-1.13-8.41c-1.6-3.96-4.94-7.53-8.96-9.53c-1.93-0.92-3.99-1.5-6.12-1.71
			C27.13,8.09,26.48,8.06,25.84,8.06z"/>
		<path fill="#FFFFFF" d="M25.87,2c3.9,0,7.8,0.91,11.28,2.67c1.22,0.62,2.38,1.33,3.49,2.13c1.76,1.36,3.32,2.83,4.68,4.59
			c2.41,3.12,3.91,6.72,4.56,10.6c0.82,4.99,0.06,10.23-2.1,14.66c-0.68,1.36-1.59,2.49-2.1,3.6l2.32,2.47
			c-0.54,0.79-4.37,4.65-5.19,5.24l-2.58-2.35c-4.6,2.76-8.49,4.63-13.82,4.63c-1.31,0-2.7-0.11-4.21-0.35
			C2.54,46.73-4.52,22.61,8.92,9C13.59,4.24,19.74,2,25.87,2 M26.28,45.08c9.68,0,17.71-7.21,18.69-17.17
			c0.31-3.2-0.14-6.21-1.19-8.87c-1.76-4.37-5.36-8.02-9.44-10.06c-2.01-0.96-4.2-1.59-6.46-1.81c-0.69-0.07-1.37-0.11-2.04-0.11
			c-9.78,0-17.62,7.38-18.68,17.17c-1.22,11.11,7.4,19.73,17.06,20.75C24.92,45.05,25.6,45.08,26.28,45.08 M50.27,43.45
			c8.65,8.7,0.03,0,8.67,8.7c0.91,0.94,2.27,1.79,2.44,3.49c0.32,3.3-2.13,5.97-5.4,5.97c-0.16,0-0.33-0.01-0.49-0.02
			c-1.73-0.17-2.61-1.56-3.51-2.47c-6.26-6.35,0,0-8.65-8.62L50.27,43.45 M25.87,0L25.87,0C18.83,0,12.3,2.7,7.49,7.6
			C0.6,14.58-1.76,24.82,1.35,34.3c3.09,9.43,10.77,15.99,20.55,17.56c1.6,0.25,3.08,0.38,4.52,0.38c5.53,0,9.64-1.89,13.56-4.16
			l1.49,1.36l0.06,0.05l-1.02,1.04l1.41,1.4c4.34,4.32,4.93,4.89,5.25,5.19c0.27,0.26,0.3,0.29,3.39,3.41
			c0.16,0.16,0.31,0.33,0.46,0.5c0.84,0.93,2.11,2.34,4.28,2.55c0.26,0.02,0.47,0.03,0.69,0.03c2.16,0,4.13-0.86,5.54-2.41
			c1.41-1.56,2.07-3.6,1.86-5.76c-0.21-2.11-1.57-3.36-2.47-4.19c-0.18-0.17-0.36-0.33-0.52-0.49c-2.18-2.19-3.26-3.28-3.81-3.83
			c-0.24-0.24-0.43-0.43-0.62-0.59l0.01-0.01c-0.13-0.13-1.45-1.45-4.27-4.29l-1.43-1.44l-0.77,0.78l-0.04-0.04l-1.32-1.4
			c0.07-0.12,0.15-0.23,0.22-0.35c0.38-0.6,0.82-1.29,1.2-2.05c2.36-4.85,3.17-10.48,2.28-15.87c-0.72-4.31-2.39-8.18-4.95-11.5
			c-1.37-1.77-3.02-3.39-5.04-4.95l-0.03-0.02L41.8,5.17c-1.18-0.85-2.44-1.62-3.74-2.28C34.3,1,30.09,0,25.87,0L25.87,0z
			 M26.28,43.08c-0.61,0-1.23-0.03-1.85-0.1c-4.56-0.48-8.85-2.83-11.76-6.45c-1.95-2.42-4.14-6.48-3.52-12.09
			c0.97-8.92,7.99-15.39,16.7-15.39c0.6,0,1.22,0.03,1.83,0.09c2.02,0.2,3.97,0.75,5.8,1.63c3.77,1.88,6.94,5.26,8.45,9.01
			c0.97,2.46,1.33,5.14,1.06,7.93C42.11,36.62,35.08,43.08,26.28,43.08L26.28,43.08z"/>
	</g>
</g>
</svg>
