<?xml version="1.0" encoding="utf-8"?>
<!-- Generator: Adobe Illustrator 22.0.1, SVG Export Plug-In . SVG Version: 6.00 Build 0)  -->
<svg version="1.1" id="Layer_1" xmlns="http://www.w3.org/2000/svg" xmlns:xlink="http://www.w3.org/1999/xlink" x="0px" y="0px"
	 viewBox="0 0 36.65 38.68" enable-background="new 0 0 36.65 38.68" xml:space="preserve">
<g>
	<g>
		<path fill-rule="evenodd" clip-rule="evenodd" fill="#2C2A29" d="M32.08,4.29c-0.11,0.17-1.3,1.05-1.56,1.25
			c-1.13,0.94-1.98,1.73-3.03,2.69l-3.54,3.63l-1.93,2.32c-0.2,0.28-0.4,0.48-0.65,0.77l-2.41,3.26c-0.2,0.31-0.34,0.51-0.57,0.82
			c-0.65,0.99-1.62,2.41-2.21,3.46l-1.98,3.54c-0.31,0.6-0.6,1.22-0.91,1.84c-0.17,0.4-0.71,1.67-0.91,1.9
			c-0.85-1.02-3.4-7.51-6.38-6.46c-0.68,0.23-1.5,0.82-1.96,1.3l-0.54,0.6c4.56,1.59,6.35,7.17,8.05,11.31l1.98-0.23
			c2.64-5.95,4.03-10.8,7.63-16.64c4.22-7.4,6.89-10.49,11.65-15.82C32.62,3.98,32.28,4.17,32.08,4.29L32.08,4.29z"/>
		<path fill="#FFFFFF" d="M32.82,3.83c-4.76,5.33-7.43,8.42-11.65,15.82c-3.6,5.84-4.99,10.69-7.63,16.64l-1.98,0.23
			c-1.7-4.14-3.49-9.72-8.05-11.31l0.54-0.6c0.45-0.48,1.28-1.08,1.96-1.3c0.22-0.08,0.44-0.11,0.66-0.11
			c2.69,0,4.93,5.63,5.72,6.58c0.2-0.23,0.74-1.5,0.91-1.9c0.31-0.62,0.6-1.25,0.91-1.84l1.98-3.54c0.6-1.05,1.56-2.47,2.21-3.46
			c0.23-0.31,0.37-0.51,0.57-0.82l2.41-3.26c0.26-0.28,0.45-0.48,0.65-0.77l1.93-2.32l3.54-3.63c1.05-0.96,1.9-1.76,3.03-2.69
			c0.26-0.2,1.45-1.08,1.56-1.25C32.28,4.17,32.62,3.98,32.82,3.83 M36.65,0l-5,2.21c-0.07,0.05-0.26,0.17-0.57,0.34l-0.41,0.23
			L30.54,3c-0.25,0.2-0.78,0.6-0.97,0.75L29.3,3.96l-0.02,0.02l-0.02,0.02c-1.07,0.88-1.88,1.63-2.82,2.49l-0.29,0.27L26.1,6.79
			l-0.04,0.04l-3.54,3.63l-0.06,0.06l-0.05,0.06l-1.93,2.32l-0.05,0.06l-0.05,0.07c-0.08,0.11-0.17,0.21-0.33,0.39l-0.17,0.18
			l-0.06,0.07l-0.06,0.08l-2.41,3.26l-0.04,0.06l-0.04,0.06c-0.17,0.27-0.3,0.45-0.5,0.72l-0.03,0.04l-0.03,0.04l-0.41,0.61
			c-0.61,0.91-1.36,2.05-1.87,2.96l-1.99,3.55l-0.01,0.02l-0.01,0.02c-0.07,0.14-0.14,0.27-0.21,0.41c-1.32-2.14-3.1-4.32-5.55-4.32
			c-0.45,0-0.89,0.08-1.32,0.23c-1.03,0.34-2.13,1.16-2.75,1.82l-0.57,0.62L0,26.1l2.85,0.99c3.24,1.13,4.88,5.24,6.33,8.87
			c0.18,0.45,0.35,0.89,0.53,1.31l0.57,1.4l1.5-0.17l1.98-0.23l1.14-0.13l0.46-1.05c0.82-1.86,1.53-3.61,2.2-5.3
			c1.49-3.7,2.89-7.2,5.3-11.1l0.02-0.03l0.02-0.03c4.11-7.19,6.6-10.1,11.4-15.48L36.65,0L36.65,0z"/>
	</g>
</g>
</svg>
